<svg id="svgIcon" viewBox="0 0 199 59" xmlns="http://www.w3.org/2000/svg">
<path d="M122.676 40.2474C122.676 42.3189 122.742 43.2231 122.99 43.4862C123.221 43.7163 123.585 43.815 124.708 43.815C125.469 43.815 126.097 43.7985 126.427 43.3875C126.609 43.1574 126.758 42.8121 126.791 42.5326C126.807 42.4175 126.84 42.3518 126.923 42.3518C126.989 42.3518 127.005 42.4011 127.005 42.5655C127.005 42.7135 126.906 43.5684 126.791 43.9794C126.691 44.3082 126.642 44.3575 125.898 44.3575C124.874 44.3575 124.13 44.3246 123.535 44.3082C122.94 44.2753 122.494 44.2753 122.081 44.2753C122.031 44.2753 121.784 44.2918 121.503 44.2918C121.222 44.3082 120.908 44.3246 120.693 44.3246C120.544 44.3246 120.462 44.2918 120.462 44.2096C120.462 44.1602 120.495 44.1274 120.577 44.1274C120.709 44.1274 120.875 44.0945 121.007 44.078C121.288 44.0123 121.37 43.7163 121.42 43.3053C121.486 42.7135 121.486 41.5955 121.486 40.2474V37.7648C121.486 35.5618 121.486 35.1672 121.453 34.7233C121.42 34.2465 121.304 34.0163 120.842 33.9177C120.726 33.8848 120.478 33.8684 120.362 33.8684C120.313 33.8684 120.247 33.8355 120.247 33.7862C120.247 33.704 120.313 33.6711 120.478 33.6711C121.123 33.6711 122.015 33.7204 122.081 33.7204C122.147 33.7204 123.188 33.6711 123.618 33.6711C123.767 33.6711 123.849 33.704 123.849 33.7862C123.849 33.8355 123.783 33.8684 123.734 33.8684C123.634 33.8684 123.436 33.8848 123.271 33.9177C122.858 33.9835 122.742 34.2301 122.709 34.7233C122.676 35.1672 122.676 35.5782 122.676 37.7648V40.2474ZM113.604 39.6391C113.67 39.6391 113.67 39.6062 113.67 39.5404L112.315 35.7262C112.249 35.5124 112.166 35.5124 112.1 35.7262L110.844 39.5404C110.811 39.6062 110.844 39.6391 110.894 39.6391H113.604ZM112.117 33.9999C112.282 33.5396 112.348 33.4574 112.431 33.4574C112.513 33.4574 112.579 33.5231 112.745 33.967C112.959 34.5096 115.19 40.3296 116.066 42.4833C116.578 43.7328 116.991 43.9629 117.289 44.0452C117.504 44.1109 117.718 44.1274 117.851 44.1274C117.933 44.1274 117.999 44.1438 117.999 44.2096C117.999 44.2918 117.867 44.3246 117.718 44.3246C117.504 44.3246 116.463 44.3246 115.488 44.2918C115.223 44.2753 115.058 44.2753 115.058 44.1931C115.058 44.1438 115.091 44.1109 115.157 44.0945C115.24 44.0616 115.322 43.9301 115.24 43.7163L113.918 40.2474C113.885 40.198 113.868 40.1652 113.786 40.1652H110.728C110.662 40.1652 110.613 40.2145 110.58 40.2802L109.72 42.7792C109.588 43.1245 109.522 43.4697 109.522 43.7163C109.522 43.9958 109.82 44.1274 110.067 44.1274H110.216C110.315 44.1274 110.365 44.1602 110.365 44.2096C110.365 44.2918 110.282 44.3246 110.15 44.3246C109.803 44.3246 109.192 44.2918 109.043 44.2918C108.894 44.2918 108.101 44.3246 107.424 44.3246C107.242 44.3246 107.159 44.2918 107.159 44.2096C107.159 44.1438 107.209 44.1274 107.291 44.1274C107.39 44.1274 107.589 44.1109 107.704 44.0945C108.365 44.0123 108.646 43.4697 108.894 42.7628L112.117 33.9999ZM102.466 40.2145C102.466 41.5791 102.466 42.6806 102.532 43.2724C102.582 43.6835 102.664 43.9958 103.094 44.0452C103.292 44.078 103.606 44.0945 103.738 44.0945C103.821 44.0945 103.854 44.1438 103.854 44.1767C103.854 44.2424 103.788 44.2918 103.623 44.2918C102.83 44.2918 101.937 44.2589 101.871 44.2589C101.805 44.2589 100.896 44.2918 100.483 44.2918C100.318 44.2918 100.252 44.2589 100.252 44.1767C100.252 44.1274 100.285 44.0945 100.367 44.0945C100.5 44.0945 100.665 44.0616 100.797 44.0452C101.078 43.9794 101.144 43.6835 101.21 43.2724C101.276 42.6806 101.276 41.5626 101.276 40.2145V34.2465L99.1611 34.2794C98.2688 34.2958 97.9383 34.3945 97.7069 34.7397C97.5582 34.9699 97.5086 35.085 97.459 35.1836C97.4095 35.2987 97.3764 35.3152 97.3103 35.3152C97.2607 35.3152 97.2442 35.2658 97.2442 35.1836C97.2442 35.0357 97.5251 33.8355 97.5582 33.7204C97.5912 33.6382 97.6408 33.4574 97.7069 33.4574C97.8061 33.4574 97.9548 33.5889 98.3349 33.6218C98.748 33.6711 99.2933 33.6875 99.4585 33.6875H104.813C105.259 33.6875 105.589 33.6546 105.821 33.6218C106.035 33.5889 106.168 33.556 106.217 33.556C106.283 33.556 106.283 33.6382 106.283 33.7204C106.283 34.1479 106.234 35.1179 106.234 35.2658C106.234 35.3974 106.201 35.4467 106.135 35.4467C106.068 35.4467 106.035 35.3974 106.019 35.2001L106.002 35.0521C105.953 34.6246 105.622 34.3123 104.251 34.2794L102.45 34.2465V40.2145H102.466ZM92.9312 40.2145C92.9312 41.5791 92.9312 42.6806 92.9973 43.2724C93.0304 43.6835 93.1295 43.9958 93.5427 44.0452C93.741 44.078 94.0549 44.0945 94.1871 44.0945C94.2697 44.0945 94.3028 44.1438 94.3028 44.1767C94.3028 44.2424 94.2367 44.2918 94.0715 44.2918C93.2948 44.2918 92.3859 44.2589 92.3198 44.2589C92.2537 44.2589 91.3449 44.2918 90.9152 44.2918C90.75 44.2918 90.6839 44.2589 90.6839 44.1767C90.6839 44.1274 90.7169 44.0945 90.7995 44.0945C90.9317 44.0945 91.097 44.0616 91.2292 44.0452C91.5101 43.9794 91.5927 43.6835 91.6423 43.2724C91.7084 42.6806 91.7084 41.5626 91.7084 40.2145V37.7319C91.7084 35.5289 91.7084 35.1343 91.6754 34.6904C91.6423 34.2136 91.5101 33.967 91.1961 33.9013C91.0474 33.8519 90.8491 33.8519 90.75 33.8519C90.7004 33.8519 90.6343 33.8191 90.6343 33.7697C90.6343 33.6875 90.7004 33.6546 90.8656 33.6546C91.3449 33.6546 92.2372 33.704 92.3033 33.704C92.3694 33.704 93.2783 33.6546 93.7079 33.6546C93.8566 33.6546 93.9393 33.6875 93.9393 33.7697C93.9393 33.8191 93.8897 33.8519 93.8236 33.8519C93.7244 33.8519 93.6418 33.8684 93.46 33.9013C93.08 33.967 92.9643 34.2136 92.9312 34.7068C92.8982 35.1507 92.8982 35.5618 92.8982 37.7484V40.2145H92.9312ZM81.3639 37.7319C81.3639 35.5289 81.3639 35.1343 81.3308 34.6904C81.2978 34.2136 81.1821 33.9835 80.7194 33.8848C80.6037 33.8519 80.3724 33.8355 80.2402 33.8355C80.1906 33.8355 80.1245 33.8026 80.1245 33.7533C80.1245 33.6711 80.1906 33.6382 80.3559 33.6382C81.0003 33.6382 81.8596 33.6875 81.9753 33.6875C82.2893 33.6875 83.1155 33.6382 83.7765 33.6382C85.5612 33.6382 86.2056 34.2301 86.437 34.4438C86.751 34.7397 87.1476 35.3809 87.1476 36.1207C87.1476 38.1265 85.6603 39.4746 83.6443 39.4746C83.5782 39.4746 83.4129 39.4746 83.3468 39.4582C83.2807 39.4582 83.1981 39.4253 83.1981 39.3596C83.1981 39.2445 83.2807 39.228 83.5782 39.228C84.9663 39.228 86.0404 38.2252 86.0404 36.9263C86.0404 36.466 85.9908 35.5124 85.2472 34.7562C84.4871 33.9999 83.6278 34.0492 83.2973 34.0492C83.0494 34.0492 82.8181 34.0821 82.6859 34.1314C82.6032 34.1643 82.5702 34.263 82.5702 34.3945V40.198C82.5702 41.5626 82.5702 42.6641 82.6363 43.256C82.6859 43.667 82.7685 43.9794 83.1981 44.0287C83.3964 44.0616 83.7104 44.078 83.8426 44.078C83.9252 44.078 83.9583 44.1274 83.9583 44.1602C83.9583 44.226 83.8922 44.2753 83.7269 44.2753C82.9337 44.2753 82.0414 44.2424 81.9753 44.2424C81.9257 44.2424 81.0334 44.2753 80.6037 44.2753C80.455 44.2753 80.3724 44.2424 80.3724 44.1602C80.3724 44.1109 80.4054 44.078 80.488 44.078C80.6202 44.078 80.7855 44.0452 80.9177 44.0287C81.1986 43.9629 81.2812 43.667 81.3308 43.256C81.3969 42.6641 81.3969 41.5462 81.3969 40.198V37.7319H81.3639ZM70.9037 44.1274C70.7054 44.0287 70.6888 43.9794 70.6888 43.5848C70.6888 42.8779 70.7384 42.3189 70.7549 42.0887C70.7715 41.9407 70.8045 41.8585 70.8706 41.8585C70.9532 41.8585 70.9698 41.9079 70.9698 42.0065C70.9698 42.138 70.9697 42.3353 71.0193 42.5326C71.2341 43.5684 72.1761 43.9794 73.1345 43.9794C74.5061 43.9794 75.1671 43.0094 75.1671 42.1052C75.1671 41.1352 74.7539 40.5597 73.5311 39.5733L72.8866 39.0472C71.3829 37.8141 71.0359 36.9428 71.0359 35.9892C71.0359 34.4767 72.1761 33.4574 73.9938 33.4574C74.5556 33.4574 74.9688 33.5067 75.3158 33.5889C75.5967 33.6382 75.6959 33.6546 75.8115 33.6546C75.9272 33.6546 75.9602 33.6875 75.9602 33.7533C75.9602 33.8191 75.9107 34.2958 75.9107 35.2494C75.9107 35.4796 75.8776 35.5782 75.8115 35.5782C75.7289 35.5782 75.7124 35.5124 75.6959 35.3974C75.6793 35.2329 75.5967 34.8384 75.5141 34.6904C75.4315 34.526 75.0514 33.9341 73.7294 33.9341C72.7379 33.9341 71.9778 34.5424 71.9778 35.5782C71.9778 36.3838 72.3413 36.8935 73.7129 37.9457L74.1095 38.258C75.795 39.5733 76.1916 40.4446 76.1916 41.5791C76.1916 42.1545 75.9602 43.2231 74.9853 43.9136C74.3739 44.3411 73.5972 44.5055 72.8371 44.5055C72.143 44.5055 71.482 44.4068 70.9037 44.1274ZM61.6332 43.963C62.9222 43.963 65.5661 43.2231 65.5661 39.1129C65.5661 35.7262 63.484 33.9013 61.2366 33.9013C58.8571 33.9013 57.0724 35.4467 57.0724 38.5375C57.0724 41.8585 59.0719 43.963 61.6332 43.963ZM61.3358 33.4409C64.5416 33.4409 66.9377 35.4467 66.9377 38.7348C66.9377 41.8914 64.6903 44.5055 61.2532 44.5055C57.3533 44.5055 55.7173 41.4968 55.7173 38.965C55.7173 36.6797 57.4029 33.4409 61.3358 33.4409ZM51.1895 40.2145C51.1895 41.5791 51.1895 42.6806 51.2556 43.2724C51.3052 43.6835 51.3878 43.9958 51.8175 44.0452C52.0158 44.078 52.3298 44.0945 52.4619 44.0945C52.5446 44.0945 52.5776 44.1438 52.5776 44.1767C52.5776 44.2424 52.5115 44.2918 52.3463 44.2918C51.5696 44.2918 50.6607 44.2589 50.5946 44.2589C50.5285 44.2589 49.6197 44.2918 49.19 44.2918C49.0413 44.2918 48.9587 44.2589 48.9587 44.1767C48.9587 44.1274 48.9917 44.0945 49.0744 44.0945C49.2066 44.0945 49.3718 44.0616 49.504 44.0452C49.7849 43.9794 49.8676 43.6835 49.9171 43.2724C49.9832 42.6806 49.9832 41.5626 49.9832 40.2145V38.7348C49.9832 38.6855 49.9337 38.6526 49.9006 38.6526H43.8525C43.8029 38.6526 43.7699 38.6691 43.7699 38.7348V40.2145C43.7699 41.5791 43.7699 42.6806 43.836 43.2724C43.8856 43.6835 43.9682 43.9958 44.3978 44.0452C44.5961 44.078 44.9101 44.0945 45.0423 44.0945C45.1249 44.0945 45.158 44.1438 45.158 44.1767C45.158 44.2424 45.0919 44.2918 44.9266 44.2918C44.1334 44.2918 43.2411 44.2589 43.175 44.2589C43.1089 44.2589 42.2 44.2918 41.7704 44.2918C41.6217 44.2918 41.539 44.2589 41.539 44.1767C41.539 44.1274 41.5721 44.0945 41.6547 44.0945C41.7869 44.0945 41.9522 44.0616 42.0844 44.0452C42.3653 43.9794 42.4314 43.6835 42.4975 43.2724C42.5636 42.6806 42.5636 41.5626 42.5636 40.2145V37.7319C42.5636 35.5289 42.5636 35.1343 42.5305 34.6904C42.4975 34.2136 42.3818 33.9835 41.9191 33.8848C41.8034 33.8519 41.5556 33.8355 41.4399 33.8355C41.3738 33.8355 41.3242 33.8026 41.3242 33.7533C41.3242 33.6711 41.3903 33.6382 41.5556 33.6382C42.2 33.6382 43.0924 33.6875 43.175 33.6875C43.2411 33.6875 44.15 33.6382 44.5796 33.6382C44.7283 33.6382 44.811 33.6711 44.811 33.7533C44.811 33.8026 44.7614 33.8355 44.6953 33.8355C44.5961 33.8355 44.5135 33.8519 44.3483 33.8848C43.9682 33.9506 43.8525 34.1972 43.8195 34.6904C43.7864 35.1343 43.7864 35.5453 43.7864 37.7319V38.0279C43.7864 38.0936 43.836 38.1101 43.869 38.1101H49.9171C49.9667 38.1101 49.9998 38.0936 49.9998 38.0279V37.7319C49.9998 35.5289 49.9998 35.1343 49.9667 34.6904C49.9337 34.2136 49.818 33.9835 49.3553 33.8848C49.2396 33.8519 48.9917 33.8355 48.8761 33.8355C48.8265 33.8355 48.7604 33.8026 48.7604 33.7533C48.7604 33.6711 48.8265 33.6382 48.9917 33.6382C49.6362 33.6382 50.5285 33.6875 50.5946 33.6875C50.6607 33.6875 51.5696 33.6382 51.9993 33.6382C52.148 33.6382 52.2306 33.6711 52.2306 33.7533C52.2306 33.8026 52.181 33.8355 52.1149 33.8355C52.0158 33.8355 51.9332 33.8519 51.7514 33.8848C51.3713 33.9506 51.2556 34.1972 51.2226 34.6904C51.1895 35.1343 51.1895 35.5453 51.1895 37.7319V40.2145Z" fill="#58595B"/>
<path d="M188.693 27.8838H185.702C185.735 26.7 185.751 21.9487 185.751 13.6461C185.751 13.1529 185.735 12.7254 185.685 12.3638C185.635 12.0021 185.586 11.739 185.52 11.5582C185.454 11.3773 185.371 11.2129 185.305 11.0649C185.222 10.917 185.14 10.8019 185.057 10.7032L185.255 10.2593L185.867 10.0949C186.28 9.97985 186.71 9.93053 187.139 9.93053C187.718 9.93053 188.213 10.0456 188.66 10.2429C188.527 13.2187 188.445 15.9971 188.395 18.5948L193.997 12.4953C194.394 12.1007 194.592 11.6732 194.592 11.2458C194.592 11.0814 194.542 10.917 194.46 10.7361L194.642 10.2758C195.137 10.0785 195.749 9.99629 196.476 9.99629C197.285 9.99629 197.798 10.0785 197.996 10.2593C197.649 10.8841 197.335 11.3773 197.021 11.7719C196.707 12.15 196.079 12.8405 195.121 13.7941C194.179 14.7641 192.758 16.178 190.89 18.0358C191.221 18.4632 192.113 19.647 193.534 21.5541C194.955 23.4612 196.129 24.9902 197.005 26.141C197.897 27.2919 198.393 27.8838 198.475 27.9166H194.708C193.865 26.5849 192.89 25.1382 191.783 23.5599C190.692 21.998 189.75 20.7814 189.007 19.9265L188.379 19.1702V20.8471C188.395 25.1217 188.494 27.4727 188.693 27.8838ZM174.085 19.8607C175.159 19.8607 176.068 19.5154 176.795 18.8414C177.522 18.1673 177.902 17.2631 177.902 16.1615C177.902 15.3395 177.77 14.6326 177.522 14.0078C177.274 13.3831 176.943 12.9063 176.53 12.561C176.134 12.2322 175.704 11.9856 175.258 11.8212C174.812 11.6568 174.366 11.591 173.919 11.6075L172.449 11.6568C172.399 12.298 172.366 14.6819 172.366 18.8085V19.5977C172.697 19.7785 173.275 19.8607 174.085 19.8607ZM172.63 27.8838H169.673V27.4563C169.673 26.9138 169.689 25.8451 169.689 24.2832C169.706 22.7214 169.706 21.5541 169.689 20.7649C169.689 20.2388 169.689 19.5154 169.706 18.5783C169.706 17.6412 169.722 16.9178 169.722 16.3917C169.722 15.8656 169.722 15.2573 169.689 14.5504C169.672 13.827 169.639 13.268 169.59 12.8405C169.54 12.4295 169.474 12.0185 169.359 11.6239C169.259 11.2293 169.127 10.9334 168.962 10.7526L169.144 10.2922C172.465 10.21 174.184 10.1607 174.316 10.1607C174.894 10.1607 175.456 10.21 175.985 10.3087C176.514 10.4073 177.043 10.5717 177.588 10.8348C178.117 11.0814 178.579 11.4102 178.976 11.8048C179.356 12.1993 179.687 12.7254 179.934 13.3666C180.166 14.0243 180.298 14.7641 180.298 15.6026C180.298 16.7699 179.967 17.8056 179.273 18.7099C178.596 19.6141 177.704 20.2882 176.58 20.6992C176.811 20.8143 177.836 21.998 179.687 24.2504C181.521 26.5027 182.562 27.7193 182.793 27.9002H179.141C178.91 27.4399 178.579 26.9138 178.15 26.3055C177.72 25.6971 177.257 25.1053 176.778 24.5463C176.299 23.9873 175.787 23.3954 175.258 22.8036C174.729 22.1953 174.25 21.6692 173.837 21.2253C173.374 21.2253 172.895 21.176 172.399 21.0609C172.449 24.9738 172.548 27.259 172.63 27.8838ZM160.848 20.4526L158.221 12.8241L155.494 20.4526H160.848ZM160.22 9.66748C160.319 10.1607 160.534 10.917 160.865 11.9363L165.624 25.7465C165.839 26.5027 166.169 27.2261 166.566 27.8838H163.294C163.244 27.4892 163.195 27.1768 163.112 26.9795L161.311 21.7349H155.048L152.999 27.5385C152.982 27.6043 152.966 27.67 152.949 27.7522C152.933 27.8344 152.933 27.8838 152.916 27.9002H150.917L157.048 11.9527C157.163 11.6075 157.295 11.3115 157.461 11.0649C157.626 10.8183 157.791 10.6046 157.956 10.4731C158.122 10.3251 158.32 10.21 158.551 10.1114C158.783 10.0127 158.964 9.94697 159.13 9.91409C159.295 9.88121 159.477 9.83189 159.725 9.79901C159.939 9.73324 160.121 9.70036 160.22 9.66748ZM144.423 19.8607C145.497 19.8607 146.406 19.5154 147.133 18.8414C147.876 18.1673 148.24 17.2631 148.24 16.1615C148.24 15.356 148.108 14.6326 147.86 14.0243C147.612 13.3995 147.281 12.9227 146.885 12.5939C146.488 12.2487 146.059 12.0021 145.612 11.8377C145.166 11.6732 144.72 11.6075 144.274 11.6239L142.803 11.6732C142.754 12.3144 142.721 14.6983 142.721 18.8249V19.6141C143.051 19.7785 143.613 19.8607 144.423 19.8607ZM142.968 27.8838H140.01V27.4563C140.01 26.9138 140.01 25.8451 140.027 24.2832C140.043 22.7214 140.043 21.5541 140.027 20.7649C140.027 20.2388 140.027 19.5154 140.043 18.5783C140.06 17.6412 140.06 16.9178 140.06 16.3917C140.06 15.8656 140.043 15.2573 140.027 14.5504C140.01 13.827 139.977 13.268 139.928 12.8405C139.878 12.4295 139.796 12.0185 139.696 11.6239C139.581 11.2293 139.465 10.9334 139.3 10.7526L139.482 10.2922L144.356 10.1443H144.654C145.232 10.1443 145.794 10.1936 146.323 10.2922C146.852 10.3909 147.381 10.5553 147.926 10.8183C148.455 11.0649 148.917 11.3938 149.314 11.7883C149.694 12.1829 150.024 12.709 150.256 13.3666C150.504 14.0243 150.619 14.7641 150.619 15.6026C150.619 16.6712 150.322 17.6412 149.744 18.4961C149.165 19.351 148.372 20.0251 147.397 20.5019C146.406 20.9787 145.331 21.2088 144.158 21.2088C143.695 21.2088 143.216 21.1595 142.721 21.0444C142.803 24.9738 142.886 27.259 142.968 27.8838ZM120.66 19.8607C121.734 19.8607 122.643 19.5154 123.37 18.8414C124.097 18.1673 124.477 17.2631 124.477 16.1615C124.477 15.3395 124.345 14.6326 124.097 14.0078C123.849 13.3831 123.519 12.9063 123.122 12.561C122.725 12.2322 122.296 11.9856 121.85 11.8212C121.403 11.6568 120.957 11.591 120.511 11.6075L119.04 11.6568C118.991 12.298 118.958 14.6819 118.958 18.8085V19.5977C119.288 19.7785 119.85 19.8607 120.66 19.8607ZM119.222 27.8838H116.264V27.4563C116.264 26.9138 116.264 25.8451 116.281 24.2832C116.297 22.7214 116.297 21.5541 116.297 20.7649C116.297 20.2388 116.297 19.5154 116.314 18.5783C116.33 17.6412 116.33 16.9178 116.33 16.3917C116.33 15.8656 116.314 15.2573 116.297 14.5504C116.281 13.827 116.248 13.268 116.198 12.8405C116.149 12.4295 116.082 12.0185 115.967 11.6239C115.851 11.2293 115.719 10.9334 115.554 10.7361L115.735 10.2758C119.057 10.1936 120.776 10.1443 120.908 10.1443C121.486 10.1443 122.048 10.1936 122.577 10.2922C123.106 10.3909 123.634 10.5553 124.18 10.8183C124.725 11.0649 125.171 11.3938 125.568 11.7883C125.948 12.1829 126.262 12.709 126.526 13.3502C126.774 14.0078 126.89 14.7477 126.89 15.5861C126.89 16.7534 126.543 17.7892 125.882 18.6934C125.204 19.5977 124.295 20.2717 123.172 20.6827C123.403 20.7978 124.428 21.9816 126.278 24.2339C128.113 26.4863 129.154 27.7029 129.385 27.8838H125.733C125.502 27.4234 125.171 26.8973 124.741 26.289C124.312 25.6807 123.849 25.0888 123.37 24.5299C122.891 23.9709 122.378 23.379 121.85 22.7871C121.321 22.1788 120.842 21.6527 120.429 21.2088C119.966 21.2088 119.487 21.1595 118.991 21.0444C119.04 24.9738 119.123 27.259 119.222 27.8838ZM102.78 13.7119C102.78 13.3173 102.763 12.9556 102.73 12.6268C102.697 12.3144 102.664 12.0514 102.615 11.8705C102.565 11.6732 102.516 11.5088 102.45 11.3609C102.383 11.2129 102.317 11.0978 102.268 11.0156C102.202 10.9334 102.136 10.8348 102.069 10.7361L102.251 10.2758H106.316L110.943 10.1936C111.142 10.4073 111.29 10.7361 111.389 11.18C111.489 11.6239 111.522 12.0514 111.489 12.4295C111.456 12.8241 111.389 13.0543 111.29 13.1693H110.795C110.712 12.7583 110.398 12.4131 109.869 12.15C109.34 11.8705 108.696 11.7226 107.952 11.7061L105.655 11.6239C105.54 13.7448 105.474 15.9149 105.474 18.1509H109.72C109.968 18.1509 110.167 18.118 110.348 18.0687C110.514 18.0193 110.613 17.9536 110.646 17.8878L110.712 17.7892C110.745 17.7892 110.761 17.97 110.761 18.3317C110.761 18.5454 110.728 18.7263 110.662 18.8907C110.596 19.0551 110.53 19.1866 110.448 19.2853C110.365 19.3839 110.249 19.4661 110.084 19.5483C109.919 19.6141 109.787 19.6799 109.687 19.7127C109.572 19.7456 109.423 19.7785 109.208 19.7949C109.01 19.8114 108.861 19.8114 108.762 19.8114H108.316C108.299 19.8114 108.068 19.8114 107.655 19.7949C107.225 19.7785 106.829 19.7785 106.449 19.7621C106.068 19.7456 105.738 19.7456 105.424 19.7621C105.407 21.5212 105.441 23.6092 105.507 26.026C105.507 26.0588 105.523 26.1082 105.556 26.1904H110.695C110.943 26.1904 111.142 26.1575 111.323 26.1082C111.489 26.0588 111.604 25.9931 111.637 25.9273L111.703 25.8287C111.736 25.8287 111.753 26.0095 111.753 26.3712C111.753 26.6178 111.72 26.8316 111.654 27.0124C111.588 27.1932 111.472 27.3412 111.323 27.4399C111.175 27.5549 111.042 27.6371 110.91 27.7029C110.778 27.7687 110.596 27.818 110.365 27.8344C110.15 27.8673 109.968 27.8838 109.836 27.8838C109.704 27.8838 109.539 27.8838 109.307 27.8838H102.73L102.763 26.0753V13.7119H102.78ZM91.0804 19.8607C92.1545 19.8607 93.0634 19.5154 93.7905 18.8414C94.5341 18.1673 94.8977 17.2631 94.8977 16.1615C94.8977 15.3395 94.7655 14.6326 94.5176 14.0078C94.2697 13.3831 93.9392 12.9063 93.5426 12.561C93.146 12.2322 92.7164 11.9856 92.2702 11.8212C91.824 11.6568 91.3779 11.591 90.9317 11.6075L89.461 11.6568C89.4114 12.298 89.3784 14.6819 89.3784 18.8085V19.5977C89.7089 19.7785 90.2707 19.8607 91.0804 19.8607ZM89.6262 27.8838H86.6683V27.4563C86.6683 26.9138 86.6683 25.8451 86.6848 24.2832C86.7013 22.7214 86.7013 21.5541 86.6848 20.7649C86.6848 20.2388 86.6848 19.5154 86.7014 18.5783C86.7014 17.6412 86.7179 16.9178 86.7179 16.3917C86.7179 15.8656 86.7013 15.2573 86.6848 14.5504C86.6683 13.827 86.6353 13.268 86.5857 12.8405C86.5361 12.4295 86.4535 12.0185 86.3543 11.6239C86.2387 11.2293 86.123 10.9334 85.9577 10.7526L86.1395 10.2922C89.461 10.21 91.1796 10.1607 91.3118 10.1607C91.8901 10.1607 92.452 10.21 92.9808 10.3087C93.5096 10.4073 94.0384 10.5717 94.5837 10.8348C95.1125 11.0814 95.5752 11.4102 95.9718 11.8048C96.3684 12.1993 96.6823 12.7254 96.9137 13.3666C97.1616 14.0243 97.2772 14.7641 97.2772 15.6026C97.2772 16.7699 96.9467 17.8056 96.2692 18.7099C95.5917 19.6141 94.6828 20.2882 93.5592 20.6992C93.7905 20.8143 94.815 21.998 96.6658 24.2504C98.5001 26.5027 99.5411 27.7193 99.789 27.9002H96.137C95.9057 27.4399 95.5752 26.9138 95.1455 26.3055C94.7159 25.6971 94.2532 25.1053 93.774 24.5463C93.2948 23.9873 92.7825 23.3954 92.2537 22.8036C91.7249 22.1953 91.2457 21.6692 90.8326 21.2253C90.3699 21.2253 89.8906 21.176 89.3949 21.0609C89.461 24.9738 89.5436 27.259 89.6262 27.8838ZM75.0018 19.8607C76.0759 19.8607 76.9848 19.5154 77.7118 18.8414C78.4389 18.1673 78.8025 17.2631 78.8025 16.1615C78.8025 15.3395 78.6868 14.6326 78.4224 14.0078C78.1745 13.3831 77.844 12.9063 77.4474 12.561C77.0343 12.2322 76.6212 11.9856 76.175 11.8212C75.7289 11.6568 75.2827 11.591 74.8365 11.6075L73.3823 11.6732C73.3328 12.3144 73.2997 14.6983 73.2997 18.8249V19.6141C73.6302 19.7785 74.2086 19.8607 75.0018 19.8607ZM73.5641 27.8838H70.6062V27.4563C70.6062 26.9138 70.6062 25.8451 70.6227 24.2832C70.6392 22.7214 70.6392 21.5541 70.6227 20.7649C70.6227 20.2388 70.6227 19.5154 70.6392 18.5783C70.6557 17.6412 70.6558 16.9178 70.6558 16.3917C70.6558 15.8656 70.6392 15.2573 70.6227 14.5504C70.6062 13.827 70.5731 13.268 70.5235 12.8405C70.474 12.4295 70.3914 12.0185 70.2922 11.6239C70.1931 11.2293 70.0609 10.9334 69.8956 10.7526L70.0774 10.2922C73.3989 10.21 75.1175 10.1607 75.2496 10.1607C75.828 10.1607 76.3899 10.21 76.9187 10.3087C77.4474 10.4073 77.9762 10.5717 78.5216 10.8348C79.0504 11.0814 79.5131 11.4102 79.9096 11.8048C80.2897 12.1993 80.6202 12.7254 80.8516 13.3666C81.0994 14.0243 81.2151 14.7641 81.2151 15.6026C81.2151 16.7699 80.8681 17.8056 80.2071 18.7099C79.5296 19.6141 78.6207 20.2882 77.497 20.6992C77.7284 20.8143 78.7694 21.998 80.6037 24.2504C82.4379 26.5027 83.479 27.7193 83.7104 27.9002H80.0584C79.827 27.4399 79.4965 26.9138 79.0669 26.3055C78.6207 25.6971 78.1745 25.1053 77.6788 24.5463C77.1996 23.9873 76.6873 23.3954 76.1585 22.8036C75.6297 22.1953 75.1505 21.6692 74.7374 21.2253C74.2747 21.2253 73.7955 21.176 73.2997 21.0609C73.3823 24.9738 73.465 27.259 73.5641 27.8838ZM61.7819 20.4526L59.1545 12.8241L56.4279 20.4526H61.7819ZM61.154 9.66748C61.2531 10.1607 61.4679 10.917 61.7984 11.9363L66.5411 25.7465C66.7559 26.5027 67.0864 27.2261 67.4995 27.8838H64.2276C64.178 27.4892 64.1119 27.1768 64.0458 26.9795L62.2446 21.7349H55.9817L53.9161 27.5385C53.8996 27.6043 53.8831 27.67 53.8665 27.7522C53.85 27.8344 53.8335 27.8838 53.8335 27.9002H51.834L57.9647 11.9527C58.0638 11.6075 58.2126 11.3115 58.3778 11.0649C58.5431 10.8183 58.7083 10.6046 58.8735 10.4731C59.0388 10.3251 59.2371 10.21 59.4684 10.1114C59.6998 10.0127 59.8981 9.94697 60.0468 9.91409C60.2121 9.88121 60.4104 9.83189 60.6417 9.79901C60.8731 9.73324 61.0548 9.70036 61.154 9.66748ZM44.8109 27.8838H41.8365L41.8695 26.0753V13.7119C41.8695 13.3173 41.853 12.9556 41.8199 12.6268C41.7869 12.3144 41.7538 12.0514 41.7043 11.8705C41.6547 11.6732 41.6051 11.5088 41.539 11.3609C41.4894 11.2293 41.4233 11.0978 41.3572 11.0156C41.2911 10.9334 41.225 10.8348 41.1589 10.7361L41.3407 10.2758H45.4389L50.0658 10.1936C50.2641 10.4073 50.4128 10.7361 50.512 11.18C50.5946 11.6239 50.6442 12.0514 50.6111 12.4295C50.5781 12.8241 50.5285 13.0543 50.4128 13.1693H49.9171C49.8345 12.7583 49.5205 12.4131 48.9917 12.15C48.4629 11.8705 47.835 11.7226 47.0748 11.7061L44.7448 11.6239C44.6126 13.7448 44.5631 15.9149 44.5631 18.1509H48.8099C49.0578 18.1509 49.2561 18.118 49.4379 18.0687C49.6031 18.0193 49.7023 17.9536 49.7353 17.8878L49.8014 17.7892C49.8345 17.7892 49.851 17.97 49.851 18.3317C49.851 18.5454 49.8179 18.7263 49.7518 18.8907C49.6857 19.0551 49.6196 19.1866 49.537 19.2853C49.4544 19.3839 49.3387 19.4661 49.1735 19.5483C49.0248 19.6141 48.876 19.6799 48.7769 19.7127C48.6612 19.7456 48.5125 19.7785 48.2977 19.7949C48.0828 19.8114 47.9341 19.8114 47.8515 19.8114H47.4053C47.3888 19.8114 47.1574 19.8114 46.7443 19.7949C46.3147 19.7785 45.9181 19.7785 45.538 19.7621C45.1579 19.7456 44.8274 19.7456 44.5135 19.7621C44.497 21.5212 44.53 23.6092 44.5961 26.026C44.5961 26.7822 44.6787 27.407 44.8109 27.8838Z" fill="#A30C33"/>
<path d="M16.9004 19.3183C24.2043 20.4363 30.8143 21.6693 32.7312 24.0861C34.4828 26.3056 27.0301 27.6866 27.0301 27.6866C27.0301 27.6866 29.7897 27.8346 33.4582 26.6344C36.9615 25.4835 34.2845 22.2612 33.0121 21.4063C30.7647 19.9102 27.6746 18.5949 19.2965 17.2632C7.41512 15.3725 0.177246 17.9701 0.177246 17.9701C5.74611 17.8551 11.8438 18.562 16.9004 19.3183ZM8.8693 58.8746C8.8693 58.8746 11.4802 46.5605 14.0911 34.8876C16.6855 23.2147 19.6765 16.0795 23.5268 9.56896C27.6911 2.53235 29.608 3.30507 29.608 3.30507C31.7397 3.50235 30.8143 14.4847 30.8143 14.4847C30.8143 14.4847 31.3761 13.3668 31.8884 7.26727C32.5329 -0.377646 27.8398 -0.426968 25.2289 1.28286C23.9399 2.12134 22.7006 2.89405 20.635 6.23151C18.685 9.38812 16.6525 13.8271 13.6285 23.7244C11.6785 30.1034 11.315 32.3393 10.2574 38.6032C8.50576 48.8457 8.8693 58.8746 8.8693 58.8746Z" fill="#A30C33"/>
</svg>
